<svg width="79" height="44" viewBox="0 0 79 44" fill="none" xmlns="http://www.w3.org/2000/svg">
<path d="M38.6099 37.7587H34.1254C32.9178 37.7587 31.9385 36.7793 31.9385 35.5718C31.9385 34.3643 32.9178 33.3849 34.1254 33.3849H38.6099C42.5404 33.3849 45.7378 30.1875 45.7378 26.2571V17.845C45.7378 16.6374 46.7171 15.6581 47.9246 15.6581C49.1322 15.6581 50.1115 16.6374 50.1115 17.845V26.2571C50.1115 32.5997 44.9518 37.7587 38.6099 37.7587Z" fill="#002B49"/>
<path d="M38.0566 30.8228H34.1957C32.9882 30.8228 32.0088 29.8434 32.0088 28.6359V20.9242C32.0088 20.5555 31.7089 20.2556 31.3402 20.2556H30.4942C30.1255 20.2556 29.8256 20.5555 29.8256 20.9242V25.5834C29.8256 28.4722 27.475 30.8228 24.5862 30.8228H6.57468C3.09697 30.8228 0.267578 27.9934 0.267578 24.5157V22.1883C0.267578 18.7106 3.09697 15.8812 6.57468 15.8812H19.6213C20.8289 15.8812 21.8082 16.8605 21.8082 18.068C21.8082 19.2756 20.8289 20.2549 19.6213 20.2549H6.57468C5.50841 20.2549 4.64134 21.122 4.64134 22.1883V24.5157C4.64134 25.5819 5.50841 26.449 6.57468 26.449H24.5855C25.0628 26.449 25.4511 26.0608 25.4511 25.5834V20.9242C25.4511 18.1441 27.7133 15.8819 30.4934 15.8819H31.3395C34.1196 15.8819 36.3819 18.1441 36.3819 20.9242V26.449H38.0559C38.5332 26.449 38.9215 26.0608 38.9215 25.5834V8.42809C38.9215 7.22056 39.9009 6.24121 41.1084 6.24121C42.3159 6.24121 43.2953 7.22056 43.2953 8.42809V25.5834C43.296 28.4722 40.9454 30.8228 38.0566 30.8228Z" fill="#002B49"/>
<path d="M11.4708 37.65C11.092 37.65 10.7486 37.5551 10.4407 37.366C10.109 37.1886 9.84893 36.9401 9.65915 36.6199C9.48168 36.2889 9.39258 35.939 9.39258 35.5725C9.39258 35.206 9.48168 34.8626 9.65915 34.5432C9.86052 34.1998 10.1206 33.939 10.4407 33.7616C10.7718 33.5841 11.1159 33.4957 11.4708 33.4957C11.8018 33.4957 12.1394 33.5841 12.4827 33.7616C12.8261 33.939 13.0869 34.1998 13.2643 34.5432C13.4534 34.8749 13.5483 35.2176 13.5483 35.5725C13.5483 35.9398 13.4534 36.2889 13.2643 36.6199C13.0869 36.9394 12.8261 37.1886 12.4827 37.366C12.1749 37.5551 11.8373 37.65 11.4708 37.65Z" fill="#5BBC6B"/>
<path d="M16.545 37.65C16.1662 37.65 15.8228 37.5551 15.515 37.366C15.1832 37.1886 14.9232 36.9401 14.7334 36.6199C14.5559 36.2889 14.4668 35.939 14.4668 35.5725C14.4668 35.206 14.5559 34.8626 14.7334 34.5432C14.9347 34.1998 15.1948 33.939 15.515 33.7616C15.846 33.5841 16.1901 33.4957 16.545 33.4957C16.8761 33.4957 17.2136 33.5841 17.557 33.7616C17.9003 33.939 18.1611 34.1998 18.3386 34.5432C18.5276 34.8749 18.6225 35.2176 18.6225 35.5725C18.6225 35.9398 18.5276 36.2889 18.3386 36.6199C18.1611 36.9394 17.9003 37.1886 17.557 37.366C17.2491 37.5551 16.9123 37.65 16.545 37.65Z" fill="#5BBC6B"/>
<path d="M47.9249 13.0199C47.5461 13.0199 47.2027 12.925 46.8948 12.7359C46.5631 12.5584 46.303 12.31 46.1132 11.9898C45.9358 11.6588 45.8467 11.3089 45.8467 10.9424C45.8467 10.5758 45.9358 10.2325 46.1132 9.91304C46.3146 9.56969 46.5747 9.30891 46.8948 9.13144C47.2259 8.95397 47.57 8.8656 47.9249 8.8656C48.2559 8.8656 48.5935 8.95397 48.9368 9.13144C49.2802 9.30891 49.541 9.56969 49.7184 9.91304C49.9075 10.2448 50.0024 10.5874 50.0024 10.9424C50.0024 11.3096 49.9075 11.6588 49.7184 11.9898C49.541 12.3093 49.2802 12.5584 48.9368 12.7359C48.629 12.925 48.2914 13.0199 47.9249 13.0199Z" fill="#5BBC6B"/>
<path d="M72.091 15.8811H59.0443C57.8368 15.8811 56.8574 16.8605 56.8574 18.068C56.8574 19.2755 57.8368 20.2549 59.0443 20.2549H72.091C73.1572 20.2549 74.0243 21.1219 74.0243 22.1882V24.5156C74.0243 25.5819 73.1572 26.449 72.091 26.449H70.0135V30.8227H72.091C75.5687 30.8227 78.3981 27.9933 78.3981 24.5156V22.1882C78.3981 18.7105 75.5687 15.8811 72.091 15.8811Z" fill="#002B49"/>
<path d="M66.5241 26.449H54.5814C53.3739 26.449 52.3945 27.4283 52.3945 28.6359C52.3945 29.8434 53.3739 30.8227 54.5814 30.8227H69.51L66.5241 26.449Z" fill="#002B49"/>
</svg>
